<?xml version="1.0" standalone="no"?>
<!DOCTYPE svg PUBLIC "-//W3C//DTD SVG 20010904//EN"
 "http://www.w3.org/TR/2001/REC-SVG-20010904/DTD/svg10.dtd">
<svg version="1.0" xmlns="http://www.w3.org/2000/svg"
 width="900.000000pt" height="1280.000000pt" viewBox="0 0 900.000000 1280.000000"
 preserveAspectRatio="xMidYMid meet">
<g transform="translate(0.000000,1280.000000) scale(0.100000,-0.100000)"
fill="#000000" stroke="none">
<path d="M4400 12797 c-3 -3 -59 -13 -125 -22 -66 -9 -163 -27 -215 -40 -589
-147 -1069 -591 -1261 -1165 -152 -456 -122 -937 86 -1366 171 -352 458 -643
810 -819 812 -405 1790 -148 2296 604 441 655 402 1520 -97 2137 -333 412
-813 645 -1379 671 -60 3 -112 3 -115 0z"/>
<path d="M3296 8889 c-178 -15 -329 -70 -486 -179 -55 -38 -417 -396 -1350
-1332 -701 -704 -1292 -1304 -1314 -1332 -57 -75 -94 -155 -121 -262 -30 -114
-31 -133 -5 -232 50 -189 155 -324 312 -402 193 -95 394 -87 603 26 62 34 157
125 852 819 431 429 789 780 795 780 10 0 14 -143 16 -683 l2 -682 1893 2
1892 3 3 688 c1 418 6 687 11 687 6 0 353 -345 773 -766 420 -421 790 -786
823 -811 128 -97 238 -135 383 -135 126 1 232 33 335 102 153 103 238 236 278
437 11 54 10 73 -5 140 -24 102 -53 175 -100 248 -48 73 -2577 2611 -2676
2685 -168 124 -323 181 -547 200 -142 12 -2223 11 -2367 -1z"/>
<path d="M1944 4028 c-353 -354 -656 -665 -674 -691 -74 -111 -122 -255 -140
-417 -31 -285 74 -625 262 -845 55 -65 1674 -1753 1773 -1848 68 -66 169 -137
239 -166 60 -26 199 -61 241 -61 39 0 177 33 231 56 122 50 246 165 309 285
115 219 94 461 -59 673 -25 34 -295 311 -600 616 -306 305 -556 562 -556 570
0 8 232 247 515 530 283 283 515 519 515 525 0 10 -1400 1415 -1410 1415 -3 0
-294 -289 -646 -642z"/>
<path d="M5675 3960 l-710 -710 525 -525 525 -525 -566 -567 c-311 -313 -582
-591 -602 -619 -45 -63 -94 -165 -113 -236 -18 -69 -18 -228 1 -298 29 -109
82 -199 169 -285 95 -95 164 -134 297 -170 116 -31 136 -31 253 0 110 28 187
64 273 129 77 58 1835 1886 1901 1977 89 123 145 245 190 413 23 90 26 119 26
271 1 181 -7 224 -60 368 -56 148 -86 182 -757 855 -347 347 -634 632 -637
632 -3 0 -325 -319 -715 -710z"/>
</g>
</svg>
